/* XPM */
static char *flag2[] = {
/* width height ncolors chars_per_pixel */
"33 31 3 1",
/* colors */
"A c #FEFE02020404",
"B s bg c None",
"C c #000000000000",
/* pixels */
"BBBBBBBBBBBBBBBBBBBBBBBBBBBBBBBBB",
"BBBBBBBBBBBBBBBBBAACCCBBBBBBBBBBB",
"BBBBBBBBBBBBBBBBBAACCCBBBBBBBBBBB",
"BBBBBBBBBBBAAAAAAAACCCBBBBBBBBBBB",
"BBBBBBBBBBBAAAAAAAACCCBBBBBBBBBBB",
"BBBBBBBBBBBAAAAAAAACCCBBBBBBBBBBB",
"BBBBBBAAAAAAAAAAAAACCCBBBBBBBBBBB",
"BBBBBBAAAAAAAAAAAAACCCBBBBBBBBBBB",
"AAAAAAAAAAAAAAAAAAACCCBBBBBBBBBBB",
"AAAAAAAAAAAAAAAAAAACCCBBBBBBBBBBB",
"AAAAAAAAAAAAAAAAAAACCCBBBBBBBBBBB",
"BBBBBBAAAAAAAAAAAAACCCBBBBBBBBBBB",
"BBBBBBAAAAAAAAAAAAACCCBBBBBBBBBBB",
"BBBBBBAAAAAAAAAAAAACCCBBBBBBBBBBB",
"BBBBBBBBBBBAAAAAAAACCCBBBBBBBBBBB",
"BBBBBBBBBBBAAAAAAAACCCBBBBBBBBBBB",
"BBBBBBBBBBBAAAAAAAACCCBBBBBBBBBBB",
"BBBBBBBBBBBBBBBBBCCCCCBBBBBBBBBBB",
"BBBBBBBBBBBBBBBBBCCCCCBBBBBBBBBBB",
"BBBBBBBBBBBBBBBBBCCCCCBBBBBBBBBBB",
"BBBBBBBBBBBBBBBBBCCCCCBBBBBBBBBBB",
"BBBBBBBBBBBBBBBBBCCCCCBBBBBBBBBBB",
"BBBBBBBBBBBBBBBBBCCCCCBBBBBBBBBBB",
"BBBBBBBBBBBBBBBBBCCCCCBBBBBBBBBBB",
"BBBBBBBBBBBBBBBBBCCCCCBBBBBBBBBBB",
"BBBBBBBBBBBCCCCCCCCCCCCCCCCCBBBBB",
"BBBBBBBBBBBCCCCCCCCCCCCCCCCCBBBBB",
"BBBBBBCCCCCCCCCCCCCCCCCCCCCCCCCCB",
"BBBBBBCCCCCCCCCCCCCCCCCCCCCCCCCCB",
"BBBBBBCCCCCCCCCCCCCCCCCCCCCCCCCCB",
"BBBBBBBBBBBBBBBBBBBBBBBBBBBBBBBBB"};
