/* XPM */
static char *mine2[] = {
/* width height ncolors chars_per_pixel */
"32 32 3 1",
/* colors */
"A c #FFFFFFFFFFFF",
"B c #FFFF0000FFFF",
"C c #000000000000",
/* pixels */
"BBBBBBBBBBBBBCCCCCCBBBBBBBBBBBBB",
"BBBBBBBBBBBBBCCCCCCBBBBBBBBBBBBB",
"BBBBBBBBBBBBBCCCCCCBBBBBBBBBBBBB",
"BBBBBBBBBBBBBCCCCCCBBBBBBBBBBBBB",
"BBBBBBBBBBBBBCCCCCCBBBBBBBBBBBBB",
"BBBBBBBBCCCCCCCCCCCCCCCCBBBBBBBB",
"BBBBBBBBCCCCCCCCCCCCCCCCBBBBBBBB",
"BBBBBBBBCCCCCCCCCCCCCCCCBBBBBBBB",
"BBBBBCCCCCCCCAAAAAAAACCCCCCBBBBB",
"BBBBBCCCCCCCCAAAAAAAACCCCCCBBBBB",
"BBBBBCCCCCCCCAAAAAAAACCCCCCBBBBB",
"BBBBBCCCCCCCCCCCAAAAAAAACCCBBBBB",
"BBBBBCCCCCCCCCCCAAAAAAAACCCBBBBB",
"CCCCCCCCCCCCCCCCCCCCCCCCCCCCCCCC",
"CCCCCCCCCCCCCCCCCCCCCCCCCCCCCCCC",
"CCCCCCCCCCCCCCCCCCCCCCCCCCCCCCCC",
"CCCCCCCCCCCCCCCCCCCCCCCCCCCCCCCC",
"CCCCCCCCCCCCCCCCCCCCCCCCCCCCCCCC",
"CCCCCCCCCCCCCCCCCCCCCCCCCCCCCCCC",
"BBBBBCCCCCCCCCCCCCCCCCCCCCCBBBBB",
"BBBBBCCCCCCCCCCCCCCCCCCCCCCBBBBB",
"BBBBBCCCCCCCCCCCCCCCCCCCCCCBBBBB",
"BBBBBCCCCCCCCCCCCCCCCCCCCCCBBBBB",
"BBBBBCCCCCCCCCCCCCCCCCCCCCCBBBBB",
"BBBBBBBBCCCCCCCCCCCCCCCCBBBBBBBB",
"BBBBBBBBCCCCCCCCCCCCCCCCBBBBBBBB",
"BBBBBBBBCCCCCCCCCCCCCCCCBBBBBBBB",
"BBBBBBBBBBBBBCCCCCCBBBBBBBBBBBBB",
"BBBBBBBBBBBBBCCCCCCBBBBBBBBBBBBB",
"BBBBBBBBBBBBBCCCCCCBBBBBBBBBBBBB",
"BBBBBBBBBBBBBCCCCCCBBBBBBBBBBBBB",
"BBBBBBBBBBBBBCCCCCCBBBBBBBBBBBBB"};
